<svg id="svg" version="1.1" xmlns="http://www.w3.org/2000/svg" xmlns:xlink="http://www.w3.org/1999/xlink" width="400" height="400" viewBox="0, 0, 400,400"><g id="svgg"><path id="path0" d="M116.962 33.149 C 96.774 37.352,87.402 61.599,99.453 78.447 C 103.142 83.604,110.276 88.542,115.436 89.510 L 116.667 89.741 116.667 114.119 L 116.667 138.497 101.407 123.241 L 86.148 107.984 87.560 105.101 C 100.753 78.154,68.964 51.381,44.492 68.828 C 21.479 85.234,34.520 122.809,62.684 121.249 L 65.535 121.091 83.155 168.129 C 104.367 224.756,102.532 220.422,105.704 221.381 L 106.907 221.744 103.306 227.851 C 85.651 257.779,81.522 268.238,82.627 280.231 C 84.535 300.945,94.833 311.267,113.667 311.344 L 117.167 311.358 118.108 312.844 C 118.626 313.661,119.737 314.893,120.577 315.581 L 122.105 316.833 126.969 316.833 C 136.405 316.833,139.943 314.550,148.680 302.822 C 154.855 294.533,159.456 289.979,166.500 285.184 C 177.442 277.735,187.655 269.925,194.583 263.710 C 198.583 260.122,198.486 260.016,197.167 266.531 C 194.025 282.049,189.548 289.356,172.677 306.500 C 151.644 327.875,147.128 337.412,146.437 361.917 L 146.228 369.333 226.896 369.333 L 307.563 369.333 307.780 364.583 C 310.455 306.110,302.555 251.388,286.839 219.530 L 284.387 214.560 307.921 167.490 L 331.455 120.421 332.644 120.778 C 334.790 121.421,342.829 121.197,345.698 120.412 C 378.455 111.460,372.244 63.470,338.333 63.513 C 316.431 63.541,302.555 86.572,312.803 105.888 L 313.893 107.943 298.613 123.220 L 283.333 138.497 283.333 114.111 L 283.333 89.725 284.607 89.510 C 287.872 88.959,293.235 85.957,296.719 82.731 C 313.933 66.794,305.558 37.458,282.549 33.103 C 255.394 27.963,237.236 59.418,255.085 80.681 L 257.004 82.966 244.421 104.451 L 231.839 125.936 223.842 105.937 L 215.846 85.937 216.840 85.231 C 239.714 68.968,228.086 32.678,200.000 32.678 C 171.901 32.678,160.268 68.984,183.160 85.232 L 184.154 85.937 176.158 105.937 L 168.161 125.936 155.571 104.438 L 142.981 82.940 144.907 80.665 C 162.920 59.384,144.161 27.486,116.962 33.149 M127.486 44.844 C 139.012 47.846,143.974 61.309,137.260 71.364 C 130.002 82.233,113.162 80.804,107.453 68.833 C 101.227 55.781,113.420 41.180,127.486 44.844 M204.488 44.844 C 215.568 47.730,220.845 61.382,214.535 70.833 C 204.902 85.259,182.924 78.778,182.887 61.500 C 182.863 50.067,193.387 41.953,204.488 44.844 M281.290 44.818 C 293.699 48.120,298.349 63.507,289.801 72.977 C 279.461 84.431,260.593 77.851,259.758 62.500 C 259.121 50.808,270.057 41.828,281.290 44.818 M65.067 75.366 C 78.571 78.161,83.408 95.305,73.359 104.757 C 62.275 115.182,44.391 107.517,44.341 92.320 C 44.306 81.397,54.383 73.154,65.067 75.366 M342.513 75.510 C 355.615 78.874,360.120 94.896,350.642 104.417 C 340.469 114.636,323.116 108.678,321.358 94.362 C 319.903 82.515,331.063 72.570,342.513 75.510 M147.993 116.279 C 156.705 131.162,164.248 143.858,164.755 144.492 C 166.313 146.439,169.591 147.037,172.000 145.815 C 174.043 144.779,174.497 143.790,185.253 116.882 L 195.894 90.264 200.000 90.264 L 204.106 90.264 214.747 116.882 C 222.141 135.378,225.659 143.789,226.277 144.446 C 228.845 147.178,233.289 147.100,235.429 144.285 C 235.897 143.670,243.338 131.103,251.965 116.358 C 269.831 85.823,267.832 88.915,269.419 89.353 L 270.651 89.694 270.742 122.597 C 270.825 152.482,270.884 155.592,271.385 156.500 C 272.999 159.426,276.341 160.694,279.261 159.488 C 280.116 159.135,285.951 153.538,298.110 141.405 L 315.719 123.833 296.002 163.297 L 276.286 202.761 275.242 201.464 C 241.943 160.079,157.933 160.742,111.719 202.755 C 110.923 203.479,110.159 203.943,110.022 203.786 C 109.884 203.628,102.753 184.750,94.174 161.833 C 85.595 138.917,78.289 119.417,77.937 118.500 C 77.345 116.959,78.882 118.416,98.399 137.905 C 113.088 152.574,119.877 159.132,120.739 159.488 C 123.659 160.694,127.001 159.426,128.615 156.500 C 129.116 155.592,129.175 152.481,129.258 122.591 L 129.349 89.682 130.425 89.373 C 131.016 89.203,131.647 89.098,131.827 89.141 C 132.006 89.183,139.281 101.395,147.993 116.279 M214.000 183.850 C 226.097 185.236,238.404 188.904,244.586 192.966 C 270.800 210.187,286.221 246.342,290.810 301.333 C 292.002 315.629,292.902 342.213,292.459 350.083 L 292.239 354.000 227.508 354.000 C 191.907 354.000,162.699 353.921,162.603 353.825 C 162.311 353.534,163.252 348.355,164.175 345.168 C 166.791 336.143,170.798 330.497,183.818 317.495 C 207.337 294.006,214.624 277.003,214.662 245.528 L 214.667 241.222 216.467 237.694 C 222.622 225.636,221.345 215.187,213.588 214.126 C 208.679 213.456,205.031 217.012,204.999 222.500 C 204.931 233.835,188.662 251.093,158.667 271.649 C 148.678 278.495,144.383 282.572,137.424 291.816 C 135.484 294.392,133.993 296.233,134.109 295.906 C 137.681 285.870,134.941 279.248,126.772 278.171 C 118.399 277.068,113.631 283.524,115.113 293.960 L 115.368 295.754 111.767 295.580 C 102.571 295.136,98.652 289.941,98.088 277.447 C 97.855 272.280,97.927 272.076,99.572 273.199 C 100.659 273.941,101.111 274.043,102.848 273.935 C 109.964 273.494,110.299 264.001,103.250 262.514 C 102.023 262.255,101.778 262.881,106.782 253.500 C 115.423 237.301,131.928 210.220,138.951 200.718 L 141.500 197.269 145.000 195.509 C 164.784 185.557,190.690 181.180,214.000 183.850 M145.667 209.734 C 133.164 214.502,127.877 233.878,137.535 239.538 C 144.237 243.466,154.773 236.658,158.229 226.167 C 161.904 215.010,155.116 206.130,145.667 209.734 " stroke="none" fill="#040404" fill-rule="evenodd"></path><path id="path1" d="M118.563 44.834 C 106.276 48.211,101.711 63.573,110.199 72.977 C 120.534 84.425,139.407 77.843,140.242 62.500 C 140.880 50.777,129.797 41.746,118.563 44.834 M195.368 44.861 C 184.339 47.827,179.196 61.391,185.498 70.894 C 194.654 84.702,215.976 79.171,217.216 62.667 C 218.089 51.035,206.756 41.798,195.368 44.861 M272.371 44.860 C 260.955 47.930,256.069 61.375,262.740 71.364 C 270.003 82.241,286.834 80.812,292.547 68.833 C 298.795 55.735,286.455 41.073,272.371 44.860 M57.333 75.530 C 44.329 78.982,39.915 94.958,49.353 104.417 C 60.184 115.271,78.721 107.691,78.719 92.408 C 78.718 81.080,68.074 72.680,57.333 75.530 M334.424 75.479 C 321.123 78.702,316.728 95.515,326.743 104.861 C 337.769 115.151,355.639 107.401,355.663 92.320 C 355.680 81.210,345.169 72.875,334.424 75.479 M130.425 89.373 L 129.349 89.682 129.258 122.591 C 129.175 152.481,129.116 155.592,128.615 156.500 C 127.001 159.426,123.659 160.694,120.739 159.488 C 119.877 159.132,113.088 152.574,98.399 137.905 C 78.882 118.416,77.345 116.959,77.937 118.500 C 78.289 119.417,85.595 138.917,94.174 161.833 C 102.753 184.750,109.884 203.628,110.022 203.786 C 110.159 203.943,110.923 203.479,111.719 202.755 C 157.933 160.742,241.943 160.079,275.242 201.464 L 276.286 202.761 296.002 163.297 L 315.719 123.833 298.110 141.405 C 285.951 153.538,280.116 159.135,279.261 159.488 C 276.341 160.694,272.999 159.426,271.385 156.500 C 270.884 155.592,270.825 152.482,270.742 122.597 L 270.651 89.694 269.419 89.353 C 267.832 88.915,269.831 85.823,251.965 116.358 C 243.338 131.103,235.897 143.670,235.429 144.285 C 233.289 147.100,228.845 147.178,226.277 144.446 C 225.659 143.789,222.141 135.378,214.747 116.882 L 204.106 90.264 200.000 90.264 L 195.894 90.264 185.253 116.882 C 174.497 143.790,174.043 144.779,172.000 145.815 C 169.591 147.037,166.313 146.439,164.755 144.492 C 164.248 143.858,156.705 131.162,147.993 116.279 C 139.281 101.395,132.006 89.183,131.827 89.141 C 131.647 89.098,131.016 89.203,130.425 89.373 M191.364 183.336 C 174.657 184.499,158.402 188.767,145.000 195.509 L 141.500 197.269 138.951 200.718 C 131.928 210.220,115.423 237.301,106.782 253.500 C 101.778 262.881,102.023 262.255,103.250 262.514 C 110.299 264.001,109.964 273.494,102.848 273.935 C 101.111 274.043,100.659 273.941,99.572 273.199 C 97.927 272.076,97.855 272.280,98.088 277.447 C 98.652 289.941,102.571 295.136,111.767 295.580 L 115.368 295.754 115.113 293.960 C 113.631 283.524,118.399 277.068,126.772 278.171 C 134.941 279.248,137.681 285.870,134.109 295.906 C 133.993 296.233,135.484 294.392,137.424 291.816 C 144.383 282.572,148.678 278.495,158.667 271.649 C 188.662 251.093,204.931 233.835,204.999 222.500 C 205.031 217.012,208.679 213.456,213.588 214.126 C 221.345 215.187,222.622 225.636,216.467 237.694 L 214.667 241.222 214.662 245.528 C 214.624 277.003,207.337 294.006,183.818 317.495 C 170.798 330.497,166.791 336.143,164.175 345.168 C 163.252 348.355,162.311 353.534,162.603 353.825 C 162.699 353.921,191.907 354.000,227.508 354.000 L 292.239 354.000 292.459 350.083 C 292.902 342.213,292.002 315.629,290.810 301.333 C 286.221 246.342,270.800 210.187,244.586 192.966 C 234.156 186.114,211.177 181.956,191.364 183.336 M153.935 209.863 C 161.423 213.595,160.845 226.863,152.833 235.171 C 143.028 245.340,131.057 240.495,132.726 227.032 C 134.172 215.364,145.908 205.863,153.935 209.863 " stroke="none" fill="#fbfbfb" fill-rule="evenodd"></path></g></svg>