<svg id="svg" version="1.1" xmlns="http://www.w3.org/2000/svg" xmlns:xlink="http://www.w3.org/1999/xlink" width="400" height="400" viewBox="0, 0, 400,400"><g id="svgg"><path id="path0" d="M92.962 33.149 C 72.774 37.352,63.402 61.599,75.453 78.447 C 79.142 83.604,86.276 88.542,91.436 89.510 L 92.667 89.741 92.667 114.119 L 92.667 138.497 77.407 123.241 L 62.148 107.984 63.560 105.101 C 76.753 78.154,44.964 51.381,20.492 68.828 C -2.521 85.234,10.520 122.809,38.684 121.249 L 41.535 121.091 59.155 168.129 C 80.367 224.756,78.532 220.422,81.704 221.381 L 82.907 221.744 79.306 227.851 C 61.651 257.779,57.522 268.238,58.627 280.231 C 60.535 300.945,70.833 311.267,89.667 311.344 L 93.167 311.358 94.108 312.844 C 94.626 313.661,95.737 314.893,96.577 315.581 L 98.105 316.833 102.969 316.833 C 112.405 316.833,115.943 314.550,124.680 302.822 C 130.855 294.533,135.456 289.979,142.500 285.184 C 153.442 277.735,163.655 269.925,170.583 263.710 C 174.583 260.122,174.486 260.016,173.167 266.531 C 170.025 282.049,165.548 289.356,148.677 306.500 C 127.644 327.875,123.128 337.412,122.437 361.917 L 122.228 369.333 202.896 369.333 L 283.563 369.333 283.780 364.583 C 284.487 349.132,283.565 306.333,282.525 306.333 C 282.316 306.333,278.960 309.532,275.066 313.442 L 267.985 320.551 268.155 325.192 C 268.536 335.569,268.667 346.390,268.456 350.083 L 268.232 354.000 203.505 354.000 C 167.905 354.000,138.699 353.921,138.603 353.825 C 138.311 353.534,139.252 348.355,140.175 345.168 C 142.791 336.144,146.796 330.500,159.818 317.493 C 183.355 293.980,190.624 277.021,190.662 245.528 L 190.667 241.222 192.467 237.694 C 198.622 225.636,197.345 215.187,189.588 214.126 C 184.679 213.456,181.031 217.012,180.999 222.500 C 180.931 233.835,164.662 251.093,134.667 271.649 C 124.678 278.495,120.383 282.572,113.424 291.816 C 111.484 294.392,109.993 296.233,110.109 295.906 C 113.681 285.870,110.941 279.248,102.772 278.171 C 94.399 277.068,89.631 283.524,91.113 293.960 L 91.368 295.754 87.767 295.580 C 78.571 295.136,74.652 289.941,74.088 277.447 C 73.855 272.280,73.927 272.076,75.572 273.199 C 76.659 273.941,77.111 274.043,78.848 273.935 C 85.964 273.494,86.299 264.001,79.250 262.514 C 78.023 262.255,77.778 262.881,82.782 253.500 C 91.423 237.300,107.929 210.218,114.951 200.718 C 117.461 197.323,117.549 197.245,120.667 195.676 C 148.970 181.428,186.523 179.020,214.127 189.682 C 228.078 195.071,243.832 213.191,252.014 233.260 L 253.139 236.020 258.989 230.178 C 264.190 224.983,264.883 224.400,265.241 224.918 C 265.852 225.801,262.137 217.853,261.159 216.183 L 260.304 214.725 283.880 167.573 L 307.455 120.421 308.644 120.778 C 310.790 121.421,318.829 121.197,321.698 120.412 C 354.455 111.460,348.244 63.470,314.333 63.513 C 292.431 63.541,278.555 86.572,288.803 105.888 L 289.893 107.943 274.613 123.220 L 259.333 138.497 259.333 114.111 L 259.333 89.725 260.607 89.510 C 263.872 88.959,269.235 85.957,272.719 82.731 C 289.933 66.794,281.558 37.458,258.549 33.103 C 231.394 27.963,213.236 59.418,231.085 80.681 L 233.004 82.966 220.421 104.451 L 207.839 125.936 199.842 105.937 L 191.846 85.937 192.840 85.231 C 215.714 68.968,204.086 32.678,176.000 32.678 C 147.901 32.678,136.268 68.984,159.160 85.232 L 160.154 85.937 152.158 105.937 L 144.161 125.936 131.571 104.438 L 118.981 82.940 120.907 80.665 C 138.920 59.384,120.161 27.486,92.962 33.149 M103.436 44.831 C 118.961 48.874,120.927 70.288,106.405 77.168 C 97.921 81.187,87.548 77.420,83.453 68.833 C 77.241 55.811,89.422 41.180,103.436 44.831 M180.715 44.943 C 191.704 47.991,196.806 61.441,190.535 70.833 C 181.332 84.616,160.144 79.277,158.785 62.833 C 157.811 51.043,169.202 41.751,180.715 44.943 M257.290 44.818 C 269.699 48.120,274.349 63.507,265.801 72.977 C 255.461 84.431,236.593 77.851,235.758 62.500 C 235.121 50.808,246.057 41.828,257.290 44.818 M41.067 75.366 C 54.571 78.161,59.408 95.305,49.359 104.757 C 38.275 115.182,20.391 107.517,20.341 92.320 C 20.306 81.416,30.402 73.158,41.067 75.366 M318.513 75.510 C 331.615 78.874,336.120 94.896,326.642 104.417 C 317.293 113.808,301.529 109.699,297.837 96.908 C 294.251 84.485,306.023 72.303,318.513 75.510 M123.993 116.279 C 132.705 131.162,140.248 143.858,140.755 144.492 C 142.313 146.439,145.591 147.037,148.000 145.815 C 150.043 144.779,150.497 143.790,161.246 116.900 L 171.880 90.299 175.991 90.276 L 180.102 90.253 190.745 116.876 C 198.140 135.377,201.659 143.789,202.277 144.446 C 204.845 147.178,209.289 147.100,211.429 144.285 C 211.897 143.670,219.338 131.103,227.965 116.358 C 245.836 85.814,243.831 88.915,245.427 89.356 L 246.667 89.698 246.669 121.932 C 246.671 159.210,246.503 157.564,250.486 159.373 C 254.401 161.152,254.062 161.410,274.110 141.405 L 291.719 123.833 272.002 163.297 L 252.286 202.761 251.242 201.464 C 217.943 160.079,133.933 160.742,87.719 202.755 C 86.923 203.479,86.159 203.943,86.022 203.786 C 85.884 203.628,78.753 184.750,70.174 161.833 C 61.595 138.917,54.289 119.417,53.937 118.500 C 53.345 116.959,54.882 118.416,74.399 137.905 C 89.088 152.574,95.877 159.132,96.739 159.488 C 99.659 160.694,103.001 159.426,104.615 156.500 C 105.116 155.592,105.175 152.481,105.258 122.591 L 105.349 89.682 106.425 89.373 C 107.016 89.203,107.647 89.098,107.827 89.141 C 108.006 89.183,115.281 101.395,123.993 116.279 M359.747 140.362 C 356.427 141.127,353.411 142.454,350.319 144.510 C 348.601 145.652,331.715 162.398,283.924 210.357 L 219.833 274.673 214.392 291.253 C 198.504 339.665,199.652 335.682,201.152 337.182 C 202.518 338.548,203.460 338.316,224.127 331.519 C 234.965 327.955,248.329 323.568,253.824 321.769 L 263.815 318.500 328.093 254.353 C 395.956 186.627,394.389 188.260,396.587 182.966 C 402.013 169.893,396.934 155.812,383.000 145.298 C 376.488 140.385,367.720 138.524,359.747 140.362 M372.304 147.060 C 377.513 148.653,386.894 156.681,389.568 161.833 C 393.473 169.357,392.984 177.659,388.225 184.667 C 387.017 186.446,379.045 194.667,378.528 194.667 C 378.057 194.667,343.667 160.278,343.667 159.808 C 343.667 159.289,351.883 151.320,353.667 150.108 C 359.395 146.218,366.013 145.136,372.304 147.060 M356.667 181.834 L 374.165 199.334 319.083 254.417 L 264.000 309.499 246.417 291.916 L 228.834 274.333 283.833 219.333 C 314.083 189.083,338.908 164.333,339.001 164.333 C 339.093 164.333,347.043 172.209,356.667 181.834 M333.833 186.713 C 332.480 187.078,251.470 268.090,251.156 269.392 C 250.685 271.338,252.775 273.575,254.722 273.210 C 256.848 272.811,337.667 191.559,337.667 189.821 C 337.667 187.499,335.981 186.132,333.833 186.713 M306.253 241.582 C 262.090 285.739,264.075 283.591,265.571 285.613 C 266.448 286.799,267.838 287.444,268.941 287.178 C 270.243 286.863,351.255 205.853,351.621 204.500 C 352.201 202.352,350.835 200.667,348.512 200.667 C 347.178 200.667,347.011 200.829,306.253 241.582 M121.667 209.736 C 109.139 214.526,103.861 233.869,113.535 239.538 C 120.237 243.466,130.773 236.658,134.229 226.167 C 137.904 215.010,131.111 206.125,121.667 209.736 M242.121 296.621 C 256.969 311.471,258.975 313.596,258.286 313.743 C 257.854 313.835,251.055 316.035,243.179 318.633 L 228.857 323.355 221.933 316.428 L 215.009 309.500 218.669 298.333 C 220.681 292.192,222.873 285.479,223.539 283.417 C 224.205 281.354,224.844 279.667,224.959 279.667 C 225.075 279.667,232.797 287.296,242.121 296.621 M217.466 320.966 L 222.090 325.599 215.339 327.815 C 211.625 329.034,208.537 329.982,208.476 329.921 C 208.386 329.830,212.685 316.333,212.805 316.333 C 212.825 316.333,214.923 318.418,217.466 320.966 " stroke="none" fill="#050505" fill-rule="evenodd"></path><path id="path1" d="M94.563 44.834 C 82.279 48.210,77.713 63.576,86.199 72.977 C 96.531 84.422,115.407 77.839,116.242 62.500 C 116.882 50.748,105.825 41.738,94.563 44.834 M171.133 44.963 C 160.219 48.088,155.247 61.468,161.498 70.894 C 170.654 84.702,191.976 79.171,193.216 62.667 C 194.098 50.916,182.583 41.685,171.133 44.963 M248.371 44.860 C 236.955 47.930,232.069 61.375,238.740 71.364 C 246.003 82.241,262.834 80.812,268.547 68.833 C 274.795 55.735,262.455 41.073,248.371 44.860 M33.333 75.530 C 20.343 78.979,15.925 94.968,25.353 104.417 C 36.184 115.271,54.721 107.691,54.719 92.408 C 54.718 81.080,44.074 72.680,33.333 75.530 M310.424 75.479 C 297.202 78.683,292.745 95.449,302.641 104.757 C 313.709 115.167,331.639 107.484,331.663 92.320 C 331.680 81.210,321.169 72.875,310.424 75.479 M106.425 89.373 L 105.349 89.682 105.258 122.591 C 105.175 152.481,105.116 155.592,104.615 156.500 C 103.001 159.426,99.659 160.694,96.739 159.488 C 95.877 159.132,89.088 152.574,74.399 137.905 C 54.882 118.416,53.345 116.959,53.937 118.500 C 54.289 119.417,61.595 138.917,70.174 161.833 C 78.753 184.750,85.884 203.628,86.022 203.786 C 86.159 203.943,86.923 203.479,87.719 202.755 C 133.933 160.742,217.943 160.079,251.242 201.464 L 252.286 202.761 272.002 163.297 L 291.719 123.833 274.110 141.405 C 254.062 161.410,254.401 161.152,250.486 159.373 C 246.503 157.564,246.671 159.210,246.669 121.932 L 246.667 89.698 245.427 89.356 C 243.831 88.915,245.836 85.814,227.965 116.358 C 219.338 131.103,211.897 143.670,211.429 144.285 C 209.289 147.100,204.845 147.178,202.277 144.446 C 201.659 143.789,198.140 135.377,190.745 116.876 L 180.102 90.253 175.991 90.276 L 171.880 90.299 161.246 116.900 C 150.497 143.790,150.043 144.779,148.000 145.815 C 145.591 147.037,142.313 146.439,140.755 144.492 C 140.248 143.858,132.705 131.162,123.993 116.279 C 115.281 101.395,108.006 89.183,107.827 89.141 C 107.647 89.098,107.016 89.203,106.425 89.373 M363.167 146.316 C 359.473 146.911,356.809 147.975,353.667 150.108 C 351.883 151.320,343.667 159.289,343.667 159.808 C 343.667 160.278,378.057 194.667,378.528 194.667 C 379.045 194.667,387.017 186.446,388.225 184.667 C 395.069 174.589,393.529 164.832,383.515 154.818 C 376.180 147.484,370.543 145.128,363.167 146.316 M283.833 219.333 L 228.834 274.333 246.417 291.916 L 264.000 309.499 319.083 254.417 L 374.165 199.334 356.667 181.834 C 347.043 172.209,339.093 164.333,339.001 164.333 C 338.908 164.333,314.083 189.083,283.833 219.333 M167.364 183.336 C 150.526 184.508,134.371 188.777,120.667 195.676 C 117.549 197.245,117.461 197.323,114.951 200.718 C 107.929 210.218,91.423 237.300,82.782 253.500 C 77.778 262.881,78.023 262.255,79.250 262.514 C 86.299 264.001,85.964 273.494,78.848 273.935 C 77.111 274.043,76.659 273.941,75.572 273.199 C 73.927 272.076,73.855 272.280,74.088 277.447 C 74.652 289.941,78.571 295.136,87.767 295.580 L 91.368 295.754 91.113 293.960 C 89.631 283.524,94.399 277.068,102.772 278.171 C 110.941 279.248,113.681 285.870,110.109 295.906 C 109.993 296.233,111.484 294.392,113.424 291.816 C 120.383 282.572,124.678 278.495,134.667 271.649 C 164.662 251.093,180.931 233.835,180.999 222.500 C 181.031 217.012,184.679 213.456,189.588 214.126 C 197.345 215.187,198.622 225.636,192.467 237.694 L 190.667 241.222 190.662 245.528 C 190.624 277.021,183.355 293.980,159.818 317.493 C 146.796 330.500,142.791 336.144,140.175 345.168 C 139.252 348.355,138.311 353.534,138.603 353.825 C 138.699 353.921,167.908 354.000,203.511 354.000 L 268.243 354.000 268.456 349.583 C 268.574 347.154,268.536 339.692,268.373 333.000 C 268.210 326.308,268.198 320.608,268.347 320.333 C 268.496 320.058,271.779 316.692,275.643 312.852 L 282.667 305.870 282.667 302.935 C 282.667 301.321,282.555 300.000,282.419 300.000 C 282.283 300.000,277.970 304.186,272.835 309.303 L 263.500 318.606 245.000 324.664 C 234.825 327.996,221.542 332.360,215.483 334.361 C 197.798 340.203,198.186 340.690,204.697 320.818 C 207.097 313.493,211.460 300.150,214.392 291.167 L 219.725 274.833 243.238 251.290 L 266.752 227.747 265.813 226.022 L 264.875 224.298 259.007 230.159 L 253.139 236.020 252.014 233.260 C 245.163 216.457,233.414 201.393,220.586 192.966 C 210.156 186.114,187.177 181.956,167.364 183.336 M337.172 187.775 C 337.444 188.164,337.667 189.084,337.667 189.821 C 337.667 191.559,256.848 272.811,254.722 273.210 C 252.775 273.575,250.685 271.338,251.156 269.392 C 251.470 268.090,332.480 187.078,333.833 186.713 C 335.071 186.378,336.515 186.838,337.172 187.775 M350.558 201.161 C 351.496 201.818,351.955 203.262,351.621 204.500 C 351.255 205.853,270.243 286.863,268.941 287.178 C 266.995 287.648,264.758 285.559,265.124 283.612 C 265.523 281.486,346.774 200.667,348.512 200.667 C 349.249 200.667,350.170 200.889,350.558 201.161 M129.935 209.863 C 137.423 213.595,136.845 226.863,128.833 235.171 C 119.015 245.353,106.861 240.369,108.721 226.924 C 110.345 215.195,121.933 205.876,129.935 209.863 M223.539 283.417 C 222.873 285.479,220.681 292.192,218.669 298.333 L 215.009 309.500 221.933 316.428 L 228.857 323.355 243.179 318.633 C 251.055 316.035,257.854 313.835,258.286 313.743 C 258.997 313.591,225.818 279.667,224.959 279.667 C 224.844 279.667,224.205 281.354,223.539 283.417 M210.567 323.072 C 209.356 326.778,208.416 329.860,208.476 329.921 C 208.537 329.982,211.625 329.034,215.339 327.815 L 222.090 325.599 217.466 320.966 C 214.923 318.418,212.825 316.333,212.805 316.333 C 212.784 316.333,211.777 319.366,210.567 323.072 " stroke="none" fill="#fbfbfb" fill-rule="evenodd"></path></g></svg>