<svg id="svg" version="1.1" xmlns="http://www.w3.org/2000/svg" xmlns:xlink="http://www.w3.org/1999/xlink" width="400" height="400" viewBox="0, 0, 400,400"><g id="svgg"><path id="path0" d="M174.892 32.392 C 172.590 32.938,170.483 34.786,161.447 44.185 C 156.581 49.246,151.206 54.830,149.501 56.594 L 146.403 59.800 143.909 58.460 C 142.537 57.723,134.302 52.867,125.608 47.669 C 101.118 33.028,100.168 32.646,95.207 35.449 C 91.176 37.726,90.565 41.361,91.749 56.000 C 92.317 63.012,93.787 82.054,94.127 86.800 C 94.363 90.096,93.575 91.121,80.565 104.459 C 70.359 114.923,68.636 117.068,65.844 122.784 L 63.800 126.968 63.563 141.784 C 63.231 162.582,62.527 164.388,43.384 193.600 C 29.925 214.137,24.143 225.733,21.542 237.400 C 15.843 262.973,29.783 286.016,54.462 291.816 C 60.357 293.201,60.639 293.326,61.433 294.883 C 69.506 310.733,92.641 307.391,104.969 288.592 C 105.831 287.276,106.833 285.750,107.194 285.200 C 107.555 284.650,109.356 281.410,111.194 278.000 C 124.444 253.428,128.688 249.057,150.200 237.818 C 165.944 229.592,174.435 224.997,180.400 221.472 L 184.200 219.226 184.329 221.513 C 184.982 233.097,181.737 248.484,176.174 260.179 C 170.163 272.819,166.687 277.239,147.377 296.800 C 126.305 318.145,122.637 322.768,118.222 333.547 C 110.723 351.853,111.301 374.747,119.351 378.277 C 120.964 378.984,362.242 379.707,365.069 379.014 C 370.555 377.667,371.499 368.786,369.597 336.436 C 368.505 317.869,366.206 294.179,364.837 287.400 C 364.615 286.300,364.146 283.330,363.796 280.800 C 362.669 272.658,359.066 252.833,356.964 243.200 C 354.717 232.905,351.382 218.824,349.999 213.800 C 349.575 212.260,348.491 208.300,347.590 205.000 C 336.914 165.913,322.475 134.804,306.342 116.130 C 289.542 96.683,273.942 85.835,252.000 78.341 C 237.847 73.506,217.308 70.952,205.804 72.596 C 203.606 72.911,201.697 73.040,201.561 72.884 C 201.425 72.728,198.835 67.110,195.805 60.400 C 183.419 32.973,181.768 30.762,174.892 32.392 M175.507 54.500 C 175.730 54.775,178.074 59.770,180.716 65.600 C 187.107 79.701,190.132 85.958,191.229 87.349 C 192.267 88.665,192.865 88.666,200.800 87.361 C 216.861 84.720,239.048 87.032,253.800 92.885 C 302.716 112.294,329.805 163.749,347.569 271.000 C 352.005 297.787,356.782 342.285,356.797 356.974 C 356.803 362.171,354.024 365.250,349.889 364.628 C 344.804 363.863,324.929 363.652,231.879 363.374 C 132.144 363.077,129.548 363.050,129.154 362.313 C 128.053 360.257,130.066 346.862,132.366 340.931 C 135.493 332.870,139.473 327.811,155.600 311.400 C 177.861 288.747,180.802 285.265,186.685 274.600 C 197.366 255.237,201.858 234.182,200.267 210.940 L 199.935 206.080 203.939 201.865 C 214.215 191.045,219.025 179.321,218.980 165.200 C 218.946 154.259,217.189 150.505,211.917 150.110 C 206.389 149.695,205.471 151.524,205.151 163.600 C 204.534 186.819,196.652 195.276,155.200 217.192 C 118.600 236.543,113.423 240.814,102.590 260.600 C 90.341 282.971,87.063 287.135,80.391 288.798 C 74.484 290.271,74.759 287.640,81.499 278.200 C 87.323 270.042,87.943 268.512,86.649 265.487 C 85.394 262.553,82.144 260.975,78.989 261.767 C 77.380 262.171,74.362 265.223,70.297 270.557 C 65.083 277.398,65.694 276.957,61.845 276.653 C 49.463 275.673,38.969 266.861,36.996 255.786 C 34.424 241.355,38.669 229.909,56.943 202.000 C 69.602 182.665,76.239 169.907,78.629 160.313 C 79.071 158.541,79.402 153.713,79.753 143.940 L 80.251 130.080 81.539 127.464 C 82.604 125.299,83.842 123.876,88.713 119.208 C 96.002 112.224,100.603 107.186,105.257 101.094 C 109.530 95.500,106.822 97.004,131.398 86.576 L 150.196 78.600 154.818 74.000 C 157.359 71.470,162.802 65.935,166.911 61.700 C 174.524 53.856,174.799 53.626,175.507 54.500 M123.300 64.893 C 128.085 67.760,132.000 70.329,132.000 70.603 C 132.000 71.427,131.395 71.738,121.059 76.227 C 109.467 81.261,109.928 81.248,109.535 76.558 C 108.499 64.198,108.253 57.538,108.819 57.188 C 109.513 56.759,111.358 57.741,123.300 64.893 M111.453 128.984 C 106.910 130.852,105.020 133.014,97.807 144.600 C 87.708 160.823,87.659 161.359,96.670 157.026 C 107.941 151.606,122.400 136.812,122.400 130.700 C 122.400 127.971,116.259 127.008,111.453 128.984 M50.185 234.328 C 44.930 236.792,42.034 243.781,41.879 254.374 C 41.782 261.057,41.315 260.979,49.079 255.573 C 55.820 250.880,60.423 246.580,61.180 244.270 C 63.158 238.237,55.881 231.657,50.185 234.328 " stroke="none" fill="#040404" fill-rule="evenodd"></path><path id="path1" d="M166.911 61.700 C 162.802 65.935,157.359 71.470,154.818 74.000 L 150.196 78.600 131.398 86.576 C 106.822 97.004,109.530 95.500,105.257 101.094 C 100.603 107.186,96.002 112.224,88.713 119.208 C 83.842 123.876,82.604 125.299,81.539 127.464 L 80.251 130.080 79.753 143.940 C 79.402 153.713,79.071 158.541,78.629 160.313 C 76.239 169.907,69.602 182.665,56.943 202.000 C 38.669 229.909,34.424 241.355,36.996 255.786 C 38.969 266.861,49.463 275.673,61.845 276.653 C 65.694 276.957,65.083 277.398,70.297 270.557 C 74.362 265.223,77.380 262.171,78.989 261.767 C 82.144 260.975,85.394 262.553,86.649 265.487 C 87.943 268.512,87.323 270.042,81.499 278.200 C 74.759 287.640,74.484 290.271,80.391 288.798 C 87.063 287.135,90.341 282.971,102.590 260.600 C 113.423 240.814,118.600 236.543,155.200 217.192 C 196.652 195.276,204.534 186.819,205.151 163.600 C 205.471 151.524,206.389 149.695,211.917 150.110 C 217.189 150.505,218.946 154.259,218.980 165.200 C 219.025 179.321,214.215 191.045,203.939 201.865 L 199.935 206.080 200.267 210.940 C 201.858 234.182,197.366 255.237,186.685 274.600 C 180.802 285.265,177.861 288.747,155.600 311.400 C 139.473 327.811,135.493 332.870,132.366 340.931 C 130.066 346.862,128.053 360.257,129.154 362.313 C 129.548 363.050,132.144 363.077,231.879 363.374 C 324.929 363.652,344.804 363.863,349.889 364.628 C 354.024 365.250,356.803 362.171,356.797 356.974 C 356.782 342.285,352.005 297.787,347.569 271.000 C 329.805 163.749,302.716 112.294,253.800 92.885 C 239.048 87.032,216.861 84.720,200.800 87.361 C 192.865 88.666,192.267 88.665,191.229 87.349 C 190.132 85.958,187.107 79.701,180.716 65.600 C 175.884 54.938,175.401 54.000,174.743 54.000 C 174.546 54.000,171.021 57.465,166.911 61.700 M108.819 57.188 C 108.253 57.538,108.499 64.198,109.535 76.558 C 109.928 81.248,109.467 81.261,121.059 76.227 C 131.395 71.738,132.000 71.427,132.000 70.603 C 132.000 70.329,128.085 67.760,123.300 64.893 C 111.358 57.741,109.513 56.759,108.819 57.188 M121.100 128.796 C 124.052 130.595,119.640 138.430,110.622 147.405 C 103.922 154.073,89.558 161.798,89.885 158.557 C 90.158 155.856,104.079 134.174,107.253 131.506 C 111.199 128.189,117.941 126.870,121.100 128.796 M57.266 234.996 C 65.013 240.123,62.616 246.148,49.079 255.573 C 41.315 260.979,41.782 261.057,41.879 254.374 C 42.103 239.050,49.436 229.815,57.266 234.996 " stroke="none" fill="#fbfbfb" fill-rule="evenodd"></path></g></svg>