<?xml version="1.0" standalone="no"?>
<!DOCTYPE svg PUBLIC "-//W3C//DTD SVG 20010904//EN"
 "http://www.w3.org/TR/2001/REC-SVG-20010904/DTD/svg10.dtd">
<svg version="1.0" xmlns="http://www.w3.org/2000/svg"
 width="2400.000000pt" height="2400.000000pt" viewBox="0 0 2400.000000 2400.000000"
 preserveAspectRatio="xMidYMid meet">

<g transform="translate(0.000000,2400.000000) scale(0.1,-0.1)"
fill="#000000" stroke="none">
<path d="M14030 21770 l0 -670 -335 0 -335 0 0 -330 0 -330 335 0 335 0 0
-1005 0 -1005 330 0 330 0 0 -330 0 -330 330 0 330 0 0 330 0 330 -330 0 -330
0 0 1005 0 1005 335 0 335 0 0 330 0 330 -335 0 -335 0 0 670 0 670 -330 0
-330 0 0 -670z"/>
<path d="M16700 21770 l0 -670 -335 0 -335 0 0 -330 0 -330 335 0 335 0 0
-1005 0 -1005 330 0 330 0 0 -330 0 -330 330 0 330 0 0 330 0 330 -330 0 -330
0 0 1005 0 1005 335 0 335 0 0 330 0 330 -335 0 -335 0 0 670 0 670 -330 0
-330 0 0 -670z"/>
<path d="M1360 20100 l0 -2330 330 0 330 0 0 1335 0 1335 1005 0 1005 0 0 330
0 330 330 0 330 0 0 330 0 330 -330 0 -330 0 0 -330 0 -330 -1005 0 -1005 0 0
335 0 335 1005 0 1005 0 0 330 0 330 -1335 0 -1335 0 0 -2330z"/>
<path d="M5360 19435 l0 -1665 330 0 330 0 0 1000 0 1000 335 0 335 0 0 330 0
330 -335 0 -335 0 0 335 0 335 -330 0 -330 0 0 -1665z"/>
<path d="M6700 20770 l0 -330 660 0 660 0 0 330 0 330 -660 0 -660 0 0 -330z"/>
<path d="M10030 20770 l0 -330 995 0 995 0 0 330 0 330 -995 0 -995 0 0 -330z"/>
<path d="M18700 20100 l0 -1000 330 0 330 0 0 -330 0 -330 1005 0 1005 0 0
-340 0 -340 -1335 0 -1335 0 0 -330 0 -330 1335 0 1335 0 0 330 0 330 330 0
330 0 0 1670 0 1670 -330 0 -330 0 0 -1000 0 -1000 -1005 0 -1005 0 0 1000 0
1000 -330 0 -330 0 0 -1000z"/>
<path d="M9360 19435 l0 -1005 330 0 330 0 0 -330 0 -330 1335 0 1335 0 0 330
0 330 -1335 0 -1335 0 0 335 0 335 1335 0 1335 0 0 670 0 670 -330 0 -330 0 0
-340 0 -340 -1005 0 -1005 0 0 340 0 340 -330 0 -330 0 0 -1005z"/>
<path d="M8030 20100 l0 -330 330 0 330 0 0 330 0 330 -330 0 -330 0 0 -330z"/>
<path d="M16980 12435 l0 -2005 330 0 330 0 0 -133 c0 -74 3 -222 7 -330 l6
-197 329 0 328 0 0 330 0 330 -335 0 -335 0 0 2005 0 2005 -330 0 -330 0 0
-2005z"/>
<path d="M5650 12770 l0 -330 995 0 995 0 0 330 0 330 -995 0 -995 0 0 -330z"/>
<path d="M9650 12770 l0 -330 995 0 995 0 0 330 0 330 -995 0 -995 0 0 -330z"/>
<path d="M13650 12770 l0 -330 995 0 995 0 0 330 0 330 -995 0 -995 0 0 -330z"/>
<path d="M4980 11440 l0 -1000 330 0 330 0 0 1000 0 1000 -330 0 -330 0 0
-1000z"/>
<path d="M8980 11440 l0 -1000 330 0 330 0 0 1000 0 1000 -330 0 -330 0 0
-1000z"/>
<path d="M11650 11440 l0 -1000 330 0 330 0 0 1000 0 1000 -330 0 -330 0 0
-1000z"/>
<path d="M12980 11440 l0 -1000 330 0 330 0 0 1000 0 1000 -330 0 -330 0 0
-1000z"/>
<path d="M15650 11440 l0 -1000 330 0 330 0 0 1000 0 1000 -330 0 -330 0 0
-1000z"/>
<path d="M7650 12100 l0 -330 330 0 330 0 0 330 0 330 -330 0 -330 0 0 -330z"/>
<path d="M7650 10770 l0 -330 330 0 330 0 0 330 0 330 -330 0 -330 0 0 -330z"/>
<path d="M5650 10100 l0 -330 995 0 995 0 0 330 0 330 -995 0 -995 0 0 -330z"/>
<path d="M9650 10100 l0 -330 995 0 995 0 0 330 0 330 -995 0 -995 0 0 -330z"/>
<path d="M13650 10100 l0 -330 995 0 995 0 0 330 0 330 -995 0 -995 0 0 -330z"/>
<path d="M4980 4435 l0 -2005 330 0 330 0 0 -133 c0 -74 3 -222 7 -330 l6
-197 329 0 328 0 0 330 0 330 -335 0 -335 0 0 2005 0 2005 -330 0 -330 0 0
-2005z"/>
<path d="M7650 4770 l0 -330 995 0 995 0 0 330 0 330 -995 0 -995 0 0 -330z"/>
<path d="M11640 4770 l0 -330 -330 0 -330 0 0 -665 0 -665 330 0 330 0 0 665
0 665 1005 0 1005 0 0 -670 0 -670 -1005 0 -1005 0 0 -330 0 -330 1005 0 1005
0 0 -340 0 -340 -1335 0 -1335 0 0 -330 0 -330 1335 0 1335 0 0 330 0 330 330
0 330 0 0 1670 0 1670 -1335 0 -1335 0 0 -330z"/>
<path d="M15650 4770 l0 -330 995 0 995 0 0 330 0 330 -995 0 -995 0 0 -330z"/>
<path d="M6980 3440 l0 -1000 330 0 330 0 0 1000 0 1000 -330 0 -330 0 0
-1000z"/>
<path d="M9650 3440 l0 -1000 330 0 330 0 0 1000 0 1000 -330 0 -330 0 0
-1000z"/>
<path d="M14980 3440 l0 -1000 330 0 330 0 0 1000 0 1000 -330 0 -330 0 0
-1000z"/>
<path d="M17650 3440 l0 -1000 330 0 330 0 0 1000 0 1000 -330 0 -330 0 0
-1000z"/>
<path d="M7650 2100 l0 -330 995 0 995 0 0 330 0 330 -995 0 -995 0 0 -330z"/>
<path d="M15650 2100 l0 -330 995 0 995 0 0 330 0 330 -995 0 -995 0 0 -330z"/>
</g>
</svg>
